<svg width="1878" height="476" viewBox="0 0 1878 476" fill="none" xmlns="http://www.w3.org/2000/svg">
<path d="M1870 298.53V253.53" stroke="#FBBC04" stroke-width="15" stroke-linecap="round"/>
<path d="M1870 231.03V216.03" stroke="#1A73E8" stroke-width="15" stroke-linecap="round"/>
<path d="M1870 193.53V177.69" stroke="#FBBC04" stroke-width="15" stroke-linecap="round"/>
<path d="M1850 296.75V236.75" stroke="#1A73E8" stroke-width="15" stroke-linecap="round"/>
<path d="M1850 214.25V179.47" stroke="#FBBC04" stroke-width="15" stroke-linecap="round"/>
<path d="M1830 291.77V184.45" stroke="#EA4335" stroke-width="15" stroke-linecap="round"/>
<path d="M1810 256.1V220.12" stroke="#EA4335" stroke-width="15" stroke-linecap="round"/>
<path d="M1790 358.93V283.93" stroke="#0F9D58" stroke-width="15" stroke-linecap="round"/>
<path d="M1790 261.43V117.29" stroke="#FBBC04" stroke-width="15" stroke-linecap="round"/>
<path d="M1770 256.2V220.02" stroke="#FBBC04" stroke-width="15" stroke-linecap="round"/>
<path d="M1750 468V153" stroke="#EA4335" stroke-width="15" stroke-linecap="round"/>
<path d="M1750 130.5V85.5" stroke="#EA4335" stroke-width="15" stroke-linecap="round"/>
<path d="M1750 63V8.21997" stroke="#EA4335" stroke-width="15" stroke-linecap="round"/>
<path d="M1730 359.08V224.08" stroke="#FBBC04" stroke-width="15" stroke-linecap="round"/>
<path d="M1730 201.58V186.58" stroke="#EA4335" stroke-width="15" stroke-linecap="round"/>
<path d="M1730 164.08V117.14" stroke="#FBBC04" stroke-width="15" stroke-linecap="round"/>
<path d="M1710 337.42V322.42" stroke="#FBBC04" stroke-width="15" stroke-linecap="round"/>
<path d="M1710 299.92V138.8" stroke="#0F9D58" stroke-width="15" stroke-linecap="round"/>
<path d="M1690 375.83V240.83" stroke="#1A73E8" stroke-width="15" stroke-linecap="round"/>
<path d="M1690 218.33V173.33" stroke="#1A73E8" stroke-width="15" stroke-linecap="round"/>
<path d="M1690 150.83V100.39" stroke="#EA4335" stroke-width="15" stroke-linecap="round"/>
<path d="M1670 364.27V304.27" stroke="#0F9D58" stroke-width="15" stroke-linecap="round"/>
<path d="M1670 281.77V236.77" stroke="#EA4335" stroke-width="15" stroke-linecap="round"/>
<path d="M1670 214.27V111.95" stroke="#0F9D58" stroke-width="15" stroke-linecap="round"/>
<path d="M1650 416.06V191.06" stroke="#1A73E8" stroke-width="15" stroke-linecap="round"/>
<path d="M1650 168.56V60.1595" stroke="#0F9D58" stroke-width="15" stroke-linecap="round"/>
<path d="M1630 317.98V302.98" stroke="#0F9D58" stroke-width="15" stroke-linecap="round"/>
<path d="M1630 280.48V158.24" stroke="#1A73E8" stroke-width="15" stroke-linecap="round"/>
<path d="M1610 362.92V317.92" stroke="#FBBC04" stroke-width="15" stroke-linecap="round"/>
<path d="M1610 295.42V190.42" stroke="#FBBC04" stroke-width="15" stroke-linecap="round"/>
<path d="M1610 167.92V113.3" stroke="#FBBC04" stroke-width="15" stroke-linecap="round"/>
<path d="M1590 339.89V136.33" stroke="#EA4335" stroke-width="15" stroke-linecap="round"/>
<path d="M1570 382.73V322.73" stroke="#FBBC04" stroke-width="15" stroke-linecap="round"/>
<path d="M1570 300.23V180.23" stroke="#FBBC04" stroke-width="15" stroke-linecap="round"/>
<path d="M1570 157.73V93.4805" stroke="#FBBC04" stroke-width="15" stroke-linecap="round"/>
<path d="M1550 317.4V242.4" stroke="#0F9D58" stroke-width="15" stroke-linecap="round"/>
<path d="M1550 219.9V204.9" stroke="#EA4335" stroke-width="15" stroke-linecap="round"/>
<path d="M1550 182.4V158.82" stroke="#0F9D58" stroke-width="15" stroke-linecap="round"/>
<path d="M1530 318V303" stroke="#EA4335" stroke-width="15" stroke-linecap="round"/>
<path d="M1530 280.5V235.5" stroke="#1A73E8" stroke-width="15" stroke-linecap="round"/>
<path d="M1530 213V158.22" stroke="#0F9D58" stroke-width="15" stroke-linecap="round"/>
<path d="M1510 331.34V241.34" stroke="#1A73E8" stroke-width="15" stroke-linecap="round"/>
<path d="M1510 218.84V188.84" stroke="#EA4335" stroke-width="15" stroke-linecap="round"/>
<path d="M1510 166.34V144.88" stroke="#0F9D58" stroke-width="15" stroke-linecap="round"/>
<path d="M1490 313.58V238.58" stroke="#0F9D58" stroke-width="15" stroke-linecap="round"/>
<path d="M1490 216.08V201.08" stroke="#0F9D58" stroke-width="15" stroke-linecap="round"/>
<path d="M1490 178.58V162.64" stroke="#0F9D58" stroke-width="15" stroke-linecap="round"/>
<path d="M1470 428.35V278.35" stroke="#1A73E8" stroke-width="15" stroke-linecap="round"/>
<path d="M1470 255.85V120.85" stroke="#FBBC04" stroke-width="15" stroke-linecap="round"/>
<path d="M1470 98.3496V47.8696" stroke="#EA4335" stroke-width="15" stroke-linecap="round"/>
<path d="M1450 366.58V109.64" stroke="#1A73E8" stroke-width="15" stroke-linecap="round"/>
<path d="M1430 255.35V220.87" stroke="#EA4335" stroke-width="15" stroke-linecap="round"/>
<path d="M1410 316.59V286.59" stroke="#0F9D58" stroke-width="15" stroke-linecap="round"/>
<path d="M1410 264.09V204.09" stroke="#1A73E8" stroke-width="15" stroke-linecap="round"/>
<path d="M1410 181.59V159.63" stroke="#EA4335" stroke-width="15" stroke-linecap="round"/>
<path d="M1390 315.92V300.92" stroke="#0F9D58" stroke-width="15" stroke-linecap="round"/>
<path d="M1390 278.42V160.3" stroke="#FBBC04" stroke-width="15" stroke-linecap="round"/>
<path d="M1370 288.85V273.85" stroke="#EA4335" stroke-width="15" stroke-linecap="round"/>
<path d="M1370 251.35V236.35" stroke="#EA4335" stroke-width="15" stroke-linecap="round"/>
<path d="M1370 213.85V187.37" stroke="#0F9D58" stroke-width="15" stroke-linecap="round"/>
<path d="M1350 402.89V192.89" stroke="#0F9D58" stroke-width="15" stroke-linecap="round"/>
<path d="M1350 170.39V125.39" stroke="#1A73E8" stroke-width="15" stroke-linecap="round"/>
<path d="M1350 102.89V73.3396" stroke="#FBBC04" stroke-width="15" stroke-linecap="round"/>
<path d="M1330 364.64V259.64" stroke="#FBBC04" stroke-width="15" stroke-linecap="round"/>
<path d="M1330 237.14V177.14" stroke="#1A73E8" stroke-width="15" stroke-linecap="round"/>
<path d="M1330 154.64V111.58" stroke="#EA4335" stroke-width="15" stroke-linecap="round"/>
<path d="M1310 394.29V349.29" stroke="#FBBC04" stroke-width="15" stroke-linecap="round"/>
<path d="M1310 326.79V266.79" stroke="#FBBC04" stroke-width="15" stroke-linecap="round"/>
<path d="M1310 244.29V81.9301" stroke="#1A73E8" stroke-width="15" stroke-linecap="round"/>
<path d="M1290 409.73V319.73" stroke="#FBBC04" stroke-width="15" stroke-linecap="round"/>
<path d="M1290 297.23V252.23" stroke="#EA4335" stroke-width="15" stroke-linecap="round"/>
<path d="M1290 229.73V66.4905" stroke="#1A73E8" stroke-width="15" stroke-linecap="round"/>
<path d="M1270 351.69V321.69" stroke="#1A73E8" stroke-width="15" stroke-linecap="round"/>
<path d="M1270 299.19V224.19" stroke="#1A73E8" stroke-width="15" stroke-linecap="round"/>
<path d="M1270 201.69V124.53" stroke="#1A73E8" stroke-width="15" stroke-linecap="round"/>
<path d="M1250 401.58V356.58" stroke="#0F9D58" stroke-width="15" stroke-linecap="round"/>
<path d="M1250 334.08V169.08" stroke="#EA4335" stroke-width="15" stroke-linecap="round"/>
<path d="M1250 146.58V74.6301" stroke="#0F9D58" stroke-width="15" stroke-linecap="round"/>
<path d="M1230 316.93V271.93" stroke="#FBBC04" stroke-width="15" stroke-linecap="round"/>
<path d="M1230 249.43V219.43" stroke="#1A73E8" stroke-width="15" stroke-linecap="round"/>
<path d="M1230 196.93V159.29" stroke="#FBBC04" stroke-width="15" stroke-linecap="round"/>
<path d="M1210 276.85V246.85" stroke="#FBBC04" stroke-width="15" stroke-linecap="round"/>
<path d="M1210 224.35V199.37" stroke="#EA4335" stroke-width="15" stroke-linecap="round"/>
<path d="M1190 373.37V238.37" stroke="#1A73E8" stroke-width="15" stroke-linecap="round"/>
<path d="M1190 215.87V140.87" stroke="#0F9D58" stroke-width="15" stroke-linecap="round"/>
<path d="M1190 118.37V102.85" stroke="#1A73E8" stroke-width="15" stroke-linecap="round"/>
<path d="M1170 302.65V272.65" stroke="#EA4335" stroke-width="15" stroke-linecap="round"/>
<path d="M1170 250.15V220.15" stroke="#FBBC04" stroke-width="15" stroke-linecap="round"/>
<path d="M1170 197.65V173.57" stroke="#FBBC04" stroke-width="15" stroke-linecap="round"/>
<path d="M1150 404.52V149.52" stroke="#1A73E8" stroke-width="15" stroke-linecap="round"/>
<path d="M1150 127.02V71.6996" stroke="#FBBC04" stroke-width="15" stroke-linecap="round"/>
<path d="M1130 324.73V234.73" stroke="#EA4335" stroke-width="15" stroke-linecap="round"/>
<path d="M1130 212.23V197.23" stroke="#1A73E8" stroke-width="15" stroke-linecap="round"/>
<path d="M1130 174.73V151.48" stroke="#EA4335" stroke-width="15" stroke-linecap="round"/>
<path d="M1110 386.64V191.64" stroke="#EA4335" stroke-width="15" stroke-linecap="round"/>
<path d="M1110 169.14V139.14" stroke="#EA4335" stroke-width="15" stroke-linecap="round"/>
<path d="M1110 116.64V89.5797" stroke="#0F9D58" stroke-width="15" stroke-linecap="round"/>
<path d="M1090 447.98V297.98" stroke="#FBBC04" stroke-width="15" stroke-linecap="round"/>
<path d="M1090 275.48V110.48" stroke="#1A73E8" stroke-width="15" stroke-linecap="round"/>
<path d="M1090 87.9805V28.2305" stroke="#0F9D58" stroke-width="15" stroke-linecap="round"/>
<path d="M1070 296.25V179.97" stroke="#0F9D58" stroke-width="15" stroke-linecap="round"/>
<path d="M1050 258.74V217.48" stroke="#0F9D58" stroke-width="15" stroke-linecap="round"/>
<path d="M1030 343.89V223.89" stroke="#EA4335" stroke-width="15" stroke-linecap="round"/>
<path d="M1030 201.39V186.39" stroke="#FBBC04" stroke-width="15" stroke-linecap="round"/>
<path d="M1030 163.89V132.34" stroke="#0F9D58" stroke-width="15" stroke-linecap="round"/>
<path d="M1010 328.16V253.16" stroke="#EA4335" stroke-width="15" stroke-linecap="round"/>
<path d="M1010 230.66V148.06" stroke="#1A73E8" stroke-width="15" stroke-linecap="round"/>
<path d="M990 407.62V227.62" stroke="#EA4335" stroke-width="15" stroke-linecap="round"/>
<path d="M990 205.12V160.12" stroke="#EA4335" stroke-width="15" stroke-linecap="round"/>
<path d="M990 137.62V68.6001" stroke="#0F9D58" stroke-width="15" stroke-linecap="round"/>
<path d="M970 298.79V268.79" stroke="#EA4335" stroke-width="15" stroke-linecap="round"/>
<path d="M970 246.29V231.29" stroke="#EA4335" stroke-width="15" stroke-linecap="round"/>
<path d="M970 208.79V177.43" stroke="#EA4335" stroke-width="15" stroke-linecap="round"/>
<path d="M950 436.13V106.13" stroke="#0F9D58" stroke-width="15" stroke-linecap="round"/>
<path d="M950 83.6299V40.0898" stroke="#0F9D58" stroke-width="15" stroke-linecap="round"/>
<path d="M8 177.47V222.47" stroke="#FBBC04" stroke-width="15" stroke-linecap="round"/>
<path d="M8 244.97V259.97" stroke="#1A73E8" stroke-width="15" stroke-linecap="round"/>
<path d="M8 282.47V298.31" stroke="#FBBC04" stroke-width="15" stroke-linecap="round"/>
<path d="M28 179.25V239.25" stroke="#1A73E8" stroke-width="15" stroke-linecap="round"/>
<path d="M28 261.75V296.53" stroke="#FBBC04" stroke-width="15" stroke-linecap="round"/>
<path d="M48 184.23V291.55" stroke="#EA4335" stroke-width="15" stroke-linecap="round"/>
<path d="M68 219.9V255.88" stroke="#EA4335" stroke-width="15" stroke-linecap="round"/>
<path d="M88 117.07V192.07" stroke="#0F9D58" stroke-width="15" stroke-linecap="round"/>
<path d="M88 214.57V358.71" stroke="#FBBC04" stroke-width="15" stroke-linecap="round"/>
<path d="M108 219.8V255.98" stroke="#FBBC04" stroke-width="15" stroke-linecap="round"/>
<path d="M128 8V323" stroke="#EA4335" stroke-width="15" stroke-linecap="round"/>
<path d="M128 345.5V390.5" stroke="#EA4335" stroke-width="15" stroke-linecap="round"/>
<path d="M128 413V467.78" stroke="#EA4335" stroke-width="15" stroke-linecap="round"/>
<path d="M148 116.92V251.92" stroke="#FBBC04" stroke-width="15" stroke-linecap="round"/>
<path d="M148 274.42V289.42" stroke="#EA4335" stroke-width="15" stroke-linecap="round"/>
<path d="M148 311.92V358.86" stroke="#FBBC04" stroke-width="15" stroke-linecap="round"/>
<path d="M168 138.58V153.58" stroke="#FBBC04" stroke-width="15" stroke-linecap="round"/>
<path d="M168 176.08V337.2" stroke="#0F9D58" stroke-width="15" stroke-linecap="round"/>
<path d="M188 100.17V235.17" stroke="#1A73E8" stroke-width="15" stroke-linecap="round"/>
<path d="M188 257.67V302.67" stroke="#1A73E8" stroke-width="15" stroke-linecap="round"/>
<path d="M188 325.17V375.61" stroke="#EA4335" stroke-width="15" stroke-linecap="round"/>
<path d="M208 111.73V171.73" stroke="#0F9D58" stroke-width="15" stroke-linecap="round"/>
<path d="M208 194.23V239.23" stroke="#EA4335" stroke-width="15" stroke-linecap="round"/>
<path d="M208 261.73V364.05" stroke="#0F9D58" stroke-width="15" stroke-linecap="round"/>
<path d="M228 59.9404V284.94" stroke="#1A73E8" stroke-width="15" stroke-linecap="round"/>
<path d="M228 307.44V415.84" stroke="#0F9D58" stroke-width="15" stroke-linecap="round"/>
<path d="M248 158.02V173.02" stroke="#0F9D58" stroke-width="15" stroke-linecap="round"/>
<path d="M248 195.52V317.76" stroke="#1A73E8" stroke-width="15" stroke-linecap="round"/>
<path d="M268 113.08V158.08" stroke="#FBBC04" stroke-width="15" stroke-linecap="round"/>
<path d="M268 180.58V285.58" stroke="#FBBC04" stroke-width="15" stroke-linecap="round"/>
<path d="M268 308.08V362.7" stroke="#FBBC04" stroke-width="15" stroke-linecap="round"/>
<path d="M288 136.11V339.67" stroke="#EA4335" stroke-width="15" stroke-linecap="round"/>
<path d="M308 93.2695V153.27" stroke="#FBBC04" stroke-width="15" stroke-linecap="round"/>
<path d="M308 175.77V295.77" stroke="#FBBC04" stroke-width="15" stroke-linecap="round"/>
<path d="M308 318.27V382.52" stroke="#FBBC04" stroke-width="15" stroke-linecap="round"/>
<path d="M328 158.6V233.6" stroke="#0F9D58" stroke-width="15" stroke-linecap="round"/>
<path d="M328 256.1V271.1" stroke="#EA4335" stroke-width="15" stroke-linecap="round"/>
<path d="M328 293.6V317.18" stroke="#0F9D58" stroke-width="15" stroke-linecap="round"/>
<path d="M348 158V173" stroke="#EA4335" stroke-width="15" stroke-linecap="round"/>
<path d="M348 195.5V240.5" stroke="#1A73E8" stroke-width="15" stroke-linecap="round"/>
<path d="M348 263V317.78" stroke="#0F9D58" stroke-width="15" stroke-linecap="round"/>
<path d="M368 144.66V234.66" stroke="#1A73E8" stroke-width="15" stroke-linecap="round"/>
<path d="M368 257.16V287.16" stroke="#EA4335" stroke-width="15" stroke-linecap="round"/>
<path d="M368 309.66V331.12" stroke="#0F9D58" stroke-width="15" stroke-linecap="round"/>
<path d="M388 162.42V237.42" stroke="#0F9D58" stroke-width="15" stroke-linecap="round"/>
<path d="M388 259.92V274.92" stroke="#0F9D58" stroke-width="15" stroke-linecap="round"/>
<path d="M388 297.42V313.36" stroke="#0F9D58" stroke-width="15" stroke-linecap="round"/>
<path d="M408 47.6504V197.65" stroke="#1A73E8" stroke-width="15" stroke-linecap="round"/>
<path d="M408 220.15V355.15" stroke="#FBBC04" stroke-width="15" stroke-linecap="round"/>
<path d="M408 377.65V428.13" stroke="#EA4335" stroke-width="15" stroke-linecap="round"/>
<path d="M428 109.42V366.36" stroke="#1A73E8" stroke-width="15" stroke-linecap="round"/>
<path d="M448 220.65V255.13" stroke="#EA4335" stroke-width="15" stroke-linecap="round"/>
<path d="M468 159.41V189.41" stroke="#0F9D58" stroke-width="15" stroke-linecap="round"/>
<path d="M468 211.91V271.91" stroke="#1A73E8" stroke-width="15" stroke-linecap="round"/>
<path d="M468 294.41V316.37" stroke="#EA4335" stroke-width="15" stroke-linecap="round"/>
<path d="M488 160.08V175.08" stroke="#0F9D58" stroke-width="15" stroke-linecap="round"/>
<path d="M488 197.58V315.7" stroke="#FBBC04" stroke-width="15" stroke-linecap="round"/>
<path d="M508 187.15V202.15" stroke="#EA4335" stroke-width="15" stroke-linecap="round"/>
<path d="M508 224.65V239.65" stroke="#EA4335" stroke-width="15" stroke-linecap="round"/>
<path d="M508 262.15V288.63" stroke="#0F9D58" stroke-width="15" stroke-linecap="round"/>
<path d="M528 73.1104V283.11" stroke="#0F9D58" stroke-width="15" stroke-linecap="round"/>
<path d="M528 305.61V350.61" stroke="#1A73E8" stroke-width="15" stroke-linecap="round"/>
<path d="M528 373.11V402.66" stroke="#FBBC04" stroke-width="15" stroke-linecap="round"/>
<path d="M548 111.36V216.36" stroke="#FBBC04" stroke-width="15" stroke-linecap="round"/>
<path d="M548 238.86V298.86" stroke="#1A73E8" stroke-width="15" stroke-linecap="round"/>
<path d="M548 321.36V364.42" stroke="#EA4335" stroke-width="15" stroke-linecap="round"/>
<path d="M568 81.71V126.71" stroke="#FBBC04" stroke-width="15" stroke-linecap="round"/>
<path d="M568 149.21V209.21" stroke="#FBBC04" stroke-width="15" stroke-linecap="round"/>
<path d="M568 231.71V394.07" stroke="#1A73E8" stroke-width="15" stroke-linecap="round"/>
<path d="M588 66.2695V156.27" stroke="#FBBC04" stroke-width="15" stroke-linecap="round"/>
<path d="M588 178.77V223.77" stroke="#EA4335" stroke-width="15" stroke-linecap="round"/>
<path d="M588 246.27V409.51" stroke="#1A73E8" stroke-width="15" stroke-linecap="round"/>
<path d="M608 124.31V154.31" stroke="#1A73E8" stroke-width="15" stroke-linecap="round"/>
<path d="M608 176.81V251.81" stroke="#1A73E8" stroke-width="15" stroke-linecap="round"/>
<path d="M608 274.31V351.47" stroke="#1A73E8" stroke-width="15" stroke-linecap="round"/>
<path d="M628 74.4199V119.42" stroke="#0F9D58" stroke-width="15" stroke-linecap="round"/>
<path d="M628 141.92V306.92" stroke="#EA4335" stroke-width="15" stroke-linecap="round"/>
<path d="M628 329.42V401.37" stroke="#0F9D58" stroke-width="15" stroke-linecap="round"/>
<path d="M648 159.07V204.07" stroke="#FBBC04" stroke-width="15" stroke-linecap="round"/>
<path d="M648 226.57V256.57" stroke="#1A73E8" stroke-width="15" stroke-linecap="round"/>
<path d="M648 279.07V316.71" stroke="#FBBC04" stroke-width="15" stroke-linecap="round"/>
<path d="M668 199.15V229.15" stroke="#FBBC04" stroke-width="15" stroke-linecap="round"/>
<path d="M668 251.65V276.63" stroke="#EA4335" stroke-width="15" stroke-linecap="round"/>
<path d="M688 102.63V237.63" stroke="#1A73E8" stroke-width="15" stroke-linecap="round"/>
<path d="M688 260.13V335.13" stroke="#0F9D58" stroke-width="15" stroke-linecap="round"/>
<path d="M688 357.63V373.15" stroke="#1A73E8" stroke-width="15" stroke-linecap="round"/>
<path d="M708 173.35V203.35" stroke="#EA4335" stroke-width="15" stroke-linecap="round"/>
<path d="M708 225.85V255.85" stroke="#FBBC04" stroke-width="15" stroke-linecap="round"/>
<path d="M708 278.35V302.43" stroke="#FBBC04" stroke-width="15" stroke-linecap="round"/>
<path d="M728 71.4805V326.48" stroke="#1A73E8" stroke-width="15" stroke-linecap="round"/>
<path d="M728 348.98V404.3" stroke="#FBBC04" stroke-width="15" stroke-linecap="round"/>
<path d="M748 151.27V241.27" stroke="#EA4335" stroke-width="15" stroke-linecap="round"/>
<path d="M748 263.77V278.77" stroke="#1A73E8" stroke-width="15" stroke-linecap="round"/>
<path d="M748 301.27V324.52" stroke="#EA4335" stroke-width="15" stroke-linecap="round"/>
<path d="M768 89.3604V284.36" stroke="#EA4335" stroke-width="15" stroke-linecap="round"/>
<path d="M768 306.86V336.86" stroke="#EA4335" stroke-width="15" stroke-linecap="round"/>
<path d="M768 359.36V386.42" stroke="#0F9D58" stroke-width="15" stroke-linecap="round"/>
<path d="M788 28.0195V178.02" stroke="#FBBC04" stroke-width="15" stroke-linecap="round"/>
<path d="M788 200.52V365.52" stroke="#1A73E8" stroke-width="15" stroke-linecap="round"/>
<path d="M788 388.02V447.77" stroke="#0F9D58" stroke-width="15" stroke-linecap="round"/>
<path d="M808 179.75V296.03" stroke="#0F9D58" stroke-width="15" stroke-linecap="round"/>
<path d="M828 217.26V258.52" stroke="#0F9D58" stroke-width="15" stroke-linecap="round"/>
<path d="M848 132.11V252.11" stroke="#EA4335" stroke-width="15" stroke-linecap="round"/>
<path d="M848 274.61V289.61" stroke="#FBBC04" stroke-width="15" stroke-linecap="round"/>
<path d="M848 312.11V343.66" stroke="#0F9D58" stroke-width="15" stroke-linecap="round"/>
<path d="M868 147.84V222.84" stroke="#EA4335" stroke-width="15" stroke-linecap="round"/>
<path d="M868 245.34V327.94" stroke="#1A73E8" stroke-width="15" stroke-linecap="round"/>
<path d="M888 68.3799V248.38" stroke="#EA4335" stroke-width="15" stroke-linecap="round"/>
<path d="M888 270.88V315.88" stroke="#EA4335" stroke-width="15" stroke-linecap="round"/>
<path d="M888 338.38V407.4" stroke="#0F9D58" stroke-width="15" stroke-linecap="round"/>
<path d="M908 177.21V207.21" stroke="#EA4335" stroke-width="15" stroke-linecap="round"/>
<path d="M908 229.71V244.71" stroke="#EA4335" stroke-width="15" stroke-linecap="round"/>
<path d="M908 267.21V298.57" stroke="#EA4335" stroke-width="15" stroke-linecap="round"/>
<path d="M928 39.8701V369.87" stroke="#0F9D58" stroke-width="15" stroke-linecap="round"/>
<path d="M928 392.37V435.91" stroke="#0F9D58" stroke-width="15" stroke-linecap="round"/>
</svg>
