<svg xmlns="http://www.w3.org/2000/svg" version="1.1" xmlns:xlink="http://www.w3.org/1999/xlink" xmlns:svgjs="http://svgjs.com/svgjs" width="1440" height="720" preserveAspectRatio="none" viewBox="0 0 1440 720"><g mask="url(&quot;#SvgjsMask1033&quot;)" fill="none"><g transform="translate(0, 0)" stroke-linecap="round"><path d="M260 299.58 L260 344.58" stroke-width="15" stroke="rgba(251, 188, 4, 1)"></path><path d="M260 367.08 L260 382.08" stroke-width="15" stroke="rgba(26, 115, 232, 1)"></path><path d="M260 404.58 L260 420.42" stroke-width="15" stroke="rgba(251, 188, 4, 1)"></path><path d="M280 301.36 L280 361.36" stroke-width="15" stroke="rgba(26, 115, 232, 1)"></path><path d="M280 383.86 L280 418.64" stroke-width="15" stroke="rgba(251, 188, 4, 1)"></path><path d="M300 306.34 L300 413.66" stroke-width="15" stroke="rgba(234, 67, 53, 1)"></path><path d="M320 342.01 L320 377.99" stroke-width="15" stroke="rgba(234, 67, 53, 1)"></path><path d="M340 239.18 L340 314.18" stroke-width="15" stroke="rgba(15, 157, 88, 1)"></path><path d="M340 336.68 L340 480.82" stroke-width="15" stroke="rgba(251, 188, 4, 1)"></path><path d="M360 341.91 L360 378.09" stroke-width="15" stroke="rgba(251, 188, 4, 1)"></path><path d="M380 130.11 L380 445.11" stroke-width="15" stroke="rgba(234, 67, 53, 1)"></path><path d="M380 467.61 L380 512.61" stroke-width="15" stroke="rgba(234, 67, 53, 1)"></path><path d="M380 535.11 L380 589.89" stroke-width="15" stroke="rgba(234, 67, 53, 1)"></path><path d="M400 239.03 L400 374.03" stroke-width="15" stroke="rgba(251, 188, 4, 1)"></path><path d="M400 396.53 L400 411.53" stroke-width="15" stroke="rgba(234, 67, 53, 1)"></path><path d="M400 434.03 L400 480.97" stroke-width="15" stroke="rgba(251, 188, 4, 1)"></path><path d="M420 260.69 L420 275.69" stroke-width="15" stroke="rgba(251, 188, 4, 1)"></path><path d="M420 298.19 L420 459.31" stroke-width="15" stroke="rgba(15, 157, 88, 1)"></path><path d="M440 222.28 L440 357.28" stroke-width="15" stroke="rgba(26, 115, 232, 1)"></path><path d="M440 379.78 L440 424.78" stroke-width="15" stroke="rgba(26, 115, 232, 1)"></path><path d="M440 447.28 L440 497.72" stroke-width="15" stroke="rgba(234, 67, 53, 1)"></path><path d="M460 233.84 L460 293.84000000000003" stroke-width="15" stroke="rgba(15, 157, 88, 1)"></path><path d="M460 316.34000000000003 L460 361.34000000000003" stroke-width="15" stroke="rgba(234, 67, 53, 1)"></path><path d="M460 383.84000000000003 L460 486.16" stroke-width="15" stroke="rgba(15, 157, 88, 1)"></path><path d="M480 182.05 L480 407.05" stroke-width="15" stroke="rgba(26, 115, 232, 1)"></path><path d="M480 429.55 L480 537.95" stroke-width="15" stroke="rgba(15, 157, 88, 1)"></path><path d="M500 280.13 L500 295.13" stroke-width="15" stroke="rgba(15, 157, 88, 1)"></path><path d="M500 317.63 L500 439.87" stroke-width="15" stroke="rgba(26, 115, 232, 1)"></path><path d="M520 235.19 L520 280.19" stroke-width="15" stroke="rgba(251, 188, 4, 1)"></path><path d="M520 302.69 L520 407.69" stroke-width="15" stroke="rgba(251, 188, 4, 1)"></path><path d="M520 430.19 L520 484.81" stroke-width="15" stroke="rgba(251, 188, 4, 1)"></path><path d="M540 258.22 L540 461.78" stroke-width="15" stroke="rgba(234, 67, 53, 1)"></path><path d="M560 215.38 L560 275.38" stroke-width="15" stroke="rgba(251, 188, 4, 1)"></path><path d="M560 297.88 L560 417.88" stroke-width="15" stroke="rgba(251, 188, 4, 1)"></path><path d="M560 440.38 L560 504.63" stroke-width="15" stroke="rgba(251, 188, 4, 1)"></path><path d="M580 280.71 L580 355.71" stroke-width="15" stroke="rgba(15, 157, 88, 1)"></path><path d="M580 378.21 L580 393.21" stroke-width="15" stroke="rgba(234, 67, 53, 1)"></path><path d="M580 415.71 L580 439.29" stroke-width="15" stroke="rgba(15, 157, 88, 1)"></path><path d="M600 280.11 L600 295.11" stroke-width="15" stroke="rgba(234, 67, 53, 1)"></path><path d="M600 317.61 L600 362.61" stroke-width="15" stroke="rgba(26, 115, 232, 1)"></path><path d="M600 385.11 L600 439.89" stroke-width="15" stroke="rgba(15, 157, 88, 1)"></path><path d="M620 266.77 L620 356.77" stroke-width="15" stroke="rgba(26, 115, 232, 1)"></path><path d="M620 379.27 L620 409.27" stroke-width="15" stroke="rgba(234, 67, 53, 1)"></path><path d="M620 431.77 L620 453.23" stroke-width="15" stroke="rgba(15, 157, 88, 1)"></path><path d="M640 284.53 L640 359.53" stroke-width="15" stroke="rgba(15, 157, 88, 1)"></path><path d="M640 382.03 L640 397.03" stroke-width="15" stroke="rgba(15, 157, 88, 1)"></path><path d="M640 419.53 L640 435.47" stroke-width="15" stroke="rgba(15, 157, 88, 1)"></path><path d="M660 169.76 L660 319.76" stroke-width="15" stroke="rgba(26, 115, 232, 1)"></path><path d="M660 342.26 L660 477.26" stroke-width="15" stroke="rgba(251, 188, 4, 1)"></path><path d="M660 499.76 L660 550.24" stroke-width="15" stroke="rgba(234, 67, 53, 1)"></path><path d="M680 231.53 L680 488.47" stroke-width="15" stroke="rgba(26, 115, 232, 1)"></path><path d="M700 342.76 L700 377.24" stroke-width="15" stroke="rgba(234, 67, 53, 1)"></path><path d="M720 281.52 L720 311.52" stroke-width="15" stroke="rgba(15, 157, 88, 1)"></path><path d="M720 334.02 L720 394.02" stroke-width="15" stroke="rgba(26, 115, 232, 1)"></path><path d="M720 416.52 L720 438.48" stroke-width="15" stroke="rgba(234, 67, 53, 1)"></path><path d="M740 282.19 L740 297.19" stroke-width="15" stroke="rgba(15, 157, 88, 1)"></path><path d="M740 319.69 L740 437.81" stroke-width="15" stroke="rgba(251, 188, 4, 1)"></path><path d="M760 309.26 L760 324.26" stroke-width="15" stroke="rgba(234, 67, 53, 1)"></path><path d="M760 346.76 L760 361.76" stroke-width="15" stroke="rgba(234, 67, 53, 1)"></path><path d="M760 384.26 L760 410.74" stroke-width="15" stroke="rgba(15, 157, 88, 1)"></path><path d="M780 195.22 L780 405.22" stroke-width="15" stroke="rgba(15, 157, 88, 1)"></path><path d="M780 427.72 L780 472.72" stroke-width="15" stroke="rgba(26, 115, 232, 1)"></path><path d="M780 495.22 L780 524.77" stroke-width="15" stroke="rgba(251, 188, 4, 1)"></path><path d="M800 233.47 L800 338.47" stroke-width="15" stroke="rgba(251, 188, 4, 1)"></path><path d="M800 360.97 L800 420.97" stroke-width="15" stroke="rgba(26, 115, 232, 1)"></path><path d="M800 443.47 L800 486.53" stroke-width="15" stroke="rgba(234, 67, 53, 1)"></path><path d="M820 203.82 L820 248.82" stroke-width="15" stroke="rgba(251, 188, 4, 1)"></path><path d="M820 271.32 L820 331.32" stroke-width="15" stroke="rgba(251, 188, 4, 1)"></path><path d="M820 353.82 L820 516.18" stroke-width="15" stroke="rgba(26, 115, 232, 1)"></path><path d="M840 188.38 L840 278.38" stroke-width="15" stroke="rgba(251, 188, 4, 1)"></path><path d="M840 300.88 L840 345.88" stroke-width="15" stroke="rgba(234, 67, 53, 1)"></path><path d="M840 368.38 L840 531.62" stroke-width="15" stroke="rgba(26, 115, 232, 1)"></path><path d="M860 246.42 L860 276.41999999999996" stroke-width="15" stroke="rgba(26, 115, 232, 1)"></path><path d="M860 298.91999999999996 L860 373.91999999999996" stroke-width="15" stroke="rgba(26, 115, 232, 1)"></path><path d="M860 396.41999999999996 L860 473.58" stroke-width="15" stroke="rgba(26, 115, 232, 1)"></path><path d="M880 196.53 L880 241.53" stroke-width="15" stroke="rgba(15, 157, 88, 1)"></path><path d="M880 264.03 L880 429.03" stroke-width="15" stroke="rgba(234, 67, 53, 1)"></path><path d="M880 451.53 L880 523.48" stroke-width="15" stroke="rgba(15, 157, 88, 1)"></path><path d="M900 281.18 L900 326.18" stroke-width="15" stroke="rgba(251, 188, 4, 1)"></path><path d="M900 348.68 L900 378.68" stroke-width="15" stroke="rgba(26, 115, 232, 1)"></path><path d="M900 401.18 L900 438.82" stroke-width="15" stroke="rgba(251, 188, 4, 1)"></path><path d="M920 321.26 L920 351.26" stroke-width="15" stroke="rgba(251, 188, 4, 1)"></path><path d="M920 373.76 L920 398.74" stroke-width="15" stroke="rgba(234, 67, 53, 1)"></path><path d="M940 224.74 L940 359.74" stroke-width="15" stroke="rgba(26, 115, 232, 1)"></path><path d="M940 382.24 L940 457.24" stroke-width="15" stroke="rgba(15, 157, 88, 1)"></path><path d="M940 479.74 L940 495.26" stroke-width="15" stroke="rgba(26, 115, 232, 1)"></path><path d="M960 295.46 L960 325.46" stroke-width="15" stroke="rgba(234, 67, 53, 1)"></path><path d="M960 347.96 L960 377.96" stroke-width="15" stroke="rgba(251, 188, 4, 1)"></path><path d="M960 400.46 L960 424.54" stroke-width="15" stroke="rgba(251, 188, 4, 1)"></path><path d="M980 193.59 L980 448.59000000000003" stroke-width="15" stroke="rgba(26, 115, 232, 1)"></path><path d="M980 471.09000000000003 L980 526.41" stroke-width="15" stroke="rgba(251, 188, 4, 1)"></path><path d="M1000 273.38 L1000 363.38" stroke-width="15" stroke="rgba(234, 67, 53, 1)"></path><path d="M1000 385.88 L1000 400.88" stroke-width="15" stroke="rgba(26, 115, 232, 1)"></path><path d="M1000 423.38 L1000 446.63" stroke-width="15" stroke="rgba(234, 67, 53, 1)"></path><path d="M1020 211.47 L1020 406.47" stroke-width="15" stroke="rgba(234, 67, 53, 1)"></path><path d="M1020 428.97 L1020 458.97" stroke-width="15" stroke="rgba(234, 67, 53, 1)"></path><path d="M1020 481.47 L1020 508.53" stroke-width="15" stroke="rgba(15, 157, 88, 1)"></path><path d="M1040 150.13 L1040 300.13" stroke-width="15" stroke="rgba(251, 188, 4, 1)"></path><path d="M1040 322.63 L1040 487.63" stroke-width="15" stroke="rgba(26, 115, 232, 1)"></path><path d="M1040 510.13 L1040 569.88" stroke-width="15" stroke="rgba(15, 157, 88, 1)"></path><path d="M1060 301.86 L1060 418.14" stroke-width="15" stroke="rgba(15, 157, 88, 1)"></path><path d="M1080 339.37 L1080 380.63" stroke-width="15" stroke="rgba(15, 157, 88, 1)"></path><path d="M1100 254.22 L1100 374.22" stroke-width="15" stroke="rgba(234, 67, 53, 1)"></path><path d="M1100 396.72 L1100 411.72" stroke-width="15" stroke="rgba(251, 188, 4, 1)"></path><path d="M1100 434.22 L1100 465.77" stroke-width="15" stroke="rgba(15, 157, 88, 1)"></path><path d="M1120 269.95 L1120 344.95" stroke-width="15" stroke="rgba(234, 67, 53, 1)"></path><path d="M1120 367.45 L1120 450.05" stroke-width="15" stroke="rgba(26, 115, 232, 1)"></path><path d="M1140 190.49 L1140 370.49" stroke-width="15" stroke="rgba(234, 67, 53, 1)"></path><path d="M1140 392.99 L1140 437.99" stroke-width="15" stroke="rgba(234, 67, 53, 1)"></path><path d="M1140 460.49 L1140 529.51" stroke-width="15" stroke="rgba(15, 157, 88, 1)"></path><path d="M1160 299.32 L1160 329.32" stroke-width="15" stroke="rgba(234, 67, 53, 1)"></path><path d="M1160 351.82 L1160 366.82" stroke-width="15" stroke="rgba(234, 67, 53, 1)"></path><path d="M1160 389.32 L1160 420.68" stroke-width="15" stroke="rgba(234, 67, 53, 1)"></path><path d="M1180 161.98 L1180 491.98" stroke-width="15" stroke="rgba(15, 157, 88, 1)"></path><path d="M1180 514.48 L1180 558.02" stroke-width="15" stroke="rgba(15, 157, 88, 1)"></path></g></g><defs><mask id="SvgjsMask1033"><rect width="1440" height="720" fill="#ffffff"></rect></mask></defs></svg>