<svg xmlns="http://www.w3.org/2000/svg" width="1878" height="476" fill="none" viewBox="0 0 1878 476"><path stroke="#FBBC04" stroke-linecap="round" stroke-width="15" d="M1870 298.53V253.53"/><path stroke="#1A73E8" stroke-linecap="round" stroke-width="15" d="M1870 231.03V216.03"/><path stroke="#FBBC04" stroke-linecap="round" stroke-width="15" d="M1870 193.53V177.69"/><path stroke="#1A73E8" stroke-linecap="round" stroke-width="15" d="M1850 296.75V236.75"/><path stroke="#FBBC04" stroke-linecap="round" stroke-width="15" d="M1850 214.25V179.47"/><path stroke="#EA4335" stroke-linecap="round" stroke-width="15" d="M1830 291.77V184.45"/><path stroke="#EA4335" stroke-linecap="round" stroke-width="15" d="M1810 256.1V220.12"/><path stroke="#0F9D58" stroke-linecap="round" stroke-width="15" d="M1790 358.93V283.93"/><path stroke="#FBBC04" stroke-linecap="round" stroke-width="15" d="M1790 261.43V117.29"/><path stroke="#FBBC04" stroke-linecap="round" stroke-width="15" d="M1770 256.2V220.02"/><path stroke="#EA4335" stroke-linecap="round" stroke-width="15" d="M1750 468V153"/><path stroke="#EA4335" stroke-linecap="round" stroke-width="15" d="M1750 130.5V85.5"/><path stroke="#EA4335" stroke-linecap="round" stroke-width="15" d="M1750 63V8.21997"/><path stroke="#FBBC04" stroke-linecap="round" stroke-width="15" d="M1730 359.08V224.08"/><path stroke="#EA4335" stroke-linecap="round" stroke-width="15" d="M1730 201.58V186.58"/><path stroke="#FBBC04" stroke-linecap="round" stroke-width="15" d="M1730 164.08V117.14"/><path stroke="#FBBC04" stroke-linecap="round" stroke-width="15" d="M1710 337.42V322.42"/><path stroke="#0F9D58" stroke-linecap="round" stroke-width="15" d="M1710 299.92V138.8"/><path stroke="#1A73E8" stroke-linecap="round" stroke-width="15" d="M1690 375.83V240.83"/><path stroke="#1A73E8" stroke-linecap="round" stroke-width="15" d="M1690 218.33V173.33"/><path stroke="#EA4335" stroke-linecap="round" stroke-width="15" d="M1690 150.83V100.39"/><path stroke="#0F9D58" stroke-linecap="round" stroke-width="15" d="M1670 364.27V304.27"/><path stroke="#EA4335" stroke-linecap="round" stroke-width="15" d="M1670 281.77V236.77"/><path stroke="#0F9D58" stroke-linecap="round" stroke-width="15" d="M1670 214.27V111.95"/><path stroke="#1A73E8" stroke-linecap="round" stroke-width="15" d="M1650 416.06V191.06"/><path stroke="#0F9D58" stroke-linecap="round" stroke-width="15" d="M1650 168.56V60.1595"/><path stroke="#0F9D58" stroke-linecap="round" stroke-width="15" d="M1630 317.98V302.98"/><path stroke="#1A73E8" stroke-linecap="round" stroke-width="15" d="M1630 280.48V158.24"/><path stroke="#FBBC04" stroke-linecap="round" stroke-width="15" d="M1610 362.92V317.92"/><path stroke="#FBBC04" stroke-linecap="round" stroke-width="15" d="M1610 295.42V190.42"/><path stroke="#FBBC04" stroke-linecap="round" stroke-width="15" d="M1610 167.92V113.3"/><path stroke="#EA4335" stroke-linecap="round" stroke-width="15" d="M1590 339.89V136.33"/><path stroke="#FBBC04" stroke-linecap="round" stroke-width="15" d="M1570 382.73V322.73"/><path stroke="#FBBC04" stroke-linecap="round" stroke-width="15" d="M1570 300.23V180.23"/><path stroke="#FBBC04" stroke-linecap="round" stroke-width="15" d="M1570 157.73V93.4805"/><path stroke="#0F9D58" stroke-linecap="round" stroke-width="15" d="M1550 317.4V242.4"/><path stroke="#EA4335" stroke-linecap="round" stroke-width="15" d="M1550 219.9V204.9"/><path stroke="#0F9D58" stroke-linecap="round" stroke-width="15" d="M1550 182.4V158.82"/><path stroke="#EA4335" stroke-linecap="round" stroke-width="15" d="M1530 318V303"/><path stroke="#1A73E8" stroke-linecap="round" stroke-width="15" d="M1530 280.5V235.5"/><path stroke="#0F9D58" stroke-linecap="round" stroke-width="15" d="M1530 213V158.22"/><path stroke="#1A73E8" stroke-linecap="round" stroke-width="15" d="M1510 331.34V241.34"/><path stroke="#EA4335" stroke-linecap="round" stroke-width="15" d="M1510 218.84V188.84"/><path stroke="#0F9D58" stroke-linecap="round" stroke-width="15" d="M1510 166.34V144.88"/><path stroke="#0F9D58" stroke-linecap="round" stroke-width="15" d="M1490 313.58V238.58"/><path stroke="#0F9D58" stroke-linecap="round" stroke-width="15" d="M1490 216.08V201.08"/><path stroke="#0F9D58" stroke-linecap="round" stroke-width="15" d="M1490 178.58V162.64"/><path stroke="#1A73E8" stroke-linecap="round" stroke-width="15" d="M1470 428.35V278.35"/><path stroke="#FBBC04" stroke-linecap="round" stroke-width="15" d="M1470 255.85V120.85"/><path stroke="#EA4335" stroke-linecap="round" stroke-width="15" d="M1470 98.3496V47.8696"/><path stroke="#1A73E8" stroke-linecap="round" stroke-width="15" d="M1450 366.58V109.64"/><path stroke="#EA4335" stroke-linecap="round" stroke-width="15" d="M1430 255.35V220.87"/><path stroke="#0F9D58" stroke-linecap="round" stroke-width="15" d="M1410 316.59V286.59"/><path stroke="#1A73E8" stroke-linecap="round" stroke-width="15" d="M1410 264.09V204.09"/><path stroke="#EA4335" stroke-linecap="round" stroke-width="15" d="M1410 181.59V159.63"/><path stroke="#0F9D58" stroke-linecap="round" stroke-width="15" d="M1390 315.92V300.92"/><path stroke="#FBBC04" stroke-linecap="round" stroke-width="15" d="M1390 278.42V160.3"/><path stroke="#EA4335" stroke-linecap="round" stroke-width="15" d="M1370 288.85V273.85"/><path stroke="#EA4335" stroke-linecap="round" stroke-width="15" d="M1370 251.35V236.35"/><path stroke="#0F9D58" stroke-linecap="round" stroke-width="15" d="M1370 213.85V187.37"/><path stroke="#0F9D58" stroke-linecap="round" stroke-width="15" d="M1350 402.89V192.89"/><path stroke="#1A73E8" stroke-linecap="round" stroke-width="15" d="M1350 170.39V125.39"/><path stroke="#FBBC04" stroke-linecap="round" stroke-width="15" d="M1350 102.89V73.3396"/><path stroke="#FBBC04" stroke-linecap="round" stroke-width="15" d="M1330 364.64V259.64"/><path stroke="#1A73E8" stroke-linecap="round" stroke-width="15" d="M1330 237.14V177.14"/><path stroke="#EA4335" stroke-linecap="round" stroke-width="15" d="M1330 154.64V111.58"/><path stroke="#FBBC04" stroke-linecap="round" stroke-width="15" d="M1310 394.29V349.29"/><path stroke="#FBBC04" stroke-linecap="round" stroke-width="15" d="M1310 326.79V266.79"/><path stroke="#1A73E8" stroke-linecap="round" stroke-width="15" d="M1310 244.29V81.9301"/><path stroke="#FBBC04" stroke-linecap="round" stroke-width="15" d="M1290 409.73V319.73"/><path stroke="#EA4335" stroke-linecap="round" stroke-width="15" d="M1290 297.23V252.23"/><path stroke="#1A73E8" stroke-linecap="round" stroke-width="15" d="M1290 229.73V66.4905"/><path stroke="#1A73E8" stroke-linecap="round" stroke-width="15" d="M1270 351.69V321.69"/><path stroke="#1A73E8" stroke-linecap="round" stroke-width="15" d="M1270 299.19V224.19"/><path stroke="#1A73E8" stroke-linecap="round" stroke-width="15" d="M1270 201.69V124.53"/><path stroke="#0F9D58" stroke-linecap="round" stroke-width="15" d="M1250 401.58V356.58"/><path stroke="#EA4335" stroke-linecap="round" stroke-width="15" d="M1250 334.08V169.08"/><path stroke="#0F9D58" stroke-linecap="round" stroke-width="15" d="M1250 146.58V74.6301"/><path stroke="#FBBC04" stroke-linecap="round" stroke-width="15" d="M1230 316.93V271.93"/><path stroke="#1A73E8" stroke-linecap="round" stroke-width="15" d="M1230 249.43V219.43"/><path stroke="#FBBC04" stroke-linecap="round" stroke-width="15" d="M1230 196.93V159.29"/><path stroke="#FBBC04" stroke-linecap="round" stroke-width="15" d="M1210 276.85V246.85"/><path stroke="#EA4335" stroke-linecap="round" stroke-width="15" d="M1210 224.35V199.37"/><path stroke="#1A73E8" stroke-linecap="round" stroke-width="15" d="M1190 373.37V238.37"/><path stroke="#0F9D58" stroke-linecap="round" stroke-width="15" d="M1190 215.87V140.87"/><path stroke="#1A73E8" stroke-linecap="round" stroke-width="15" d="M1190 118.37V102.85"/><path stroke="#EA4335" stroke-linecap="round" stroke-width="15" d="M1170 302.65V272.65"/><path stroke="#FBBC04" stroke-linecap="round" stroke-width="15" d="M1170 250.15V220.15"/><path stroke="#FBBC04" stroke-linecap="round" stroke-width="15" d="M1170 197.65V173.57"/><path stroke="#1A73E8" stroke-linecap="round" stroke-width="15" d="M1150 404.52V149.52"/><path stroke="#FBBC04" stroke-linecap="round" stroke-width="15" d="M1150 127.02V71.6996"/><path stroke="#EA4335" stroke-linecap="round" stroke-width="15" d="M1130 324.73V234.73"/><path stroke="#1A73E8" stroke-linecap="round" stroke-width="15" d="M1130 212.23V197.23"/><path stroke="#EA4335" stroke-linecap="round" stroke-width="15" d="M1130 174.73V151.48"/><path stroke="#EA4335" stroke-linecap="round" stroke-width="15" d="M1110 386.64V191.64"/><path stroke="#EA4335" stroke-linecap="round" stroke-width="15" d="M1110 169.14V139.14"/><path stroke="#0F9D58" stroke-linecap="round" stroke-width="15" d="M1110 116.64V89.5797"/><path stroke="#FBBC04" stroke-linecap="round" stroke-width="15" d="M1090 447.98V297.98"/><path stroke="#1A73E8" stroke-linecap="round" stroke-width="15" d="M1090 275.48V110.48"/><path stroke="#0F9D58" stroke-linecap="round" stroke-width="15" d="M1090 87.9805V28.2305"/><path stroke="#0F9D58" stroke-linecap="round" stroke-width="15" d="M1070 296.25V179.97"/><path stroke="#0F9D58" stroke-linecap="round" stroke-width="15" d="M1050 258.74V217.48"/><path stroke="#EA4335" stroke-linecap="round" stroke-width="15" d="M1030 343.89V223.89"/><path stroke="#FBBC04" stroke-linecap="round" stroke-width="15" d="M1030 201.39V186.39"/><path stroke="#0F9D58" stroke-linecap="round" stroke-width="15" d="M1030 163.89V132.34"/><path stroke="#EA4335" stroke-linecap="round" stroke-width="15" d="M1010 328.16V253.16"/><path stroke="#1A73E8" stroke-linecap="round" stroke-width="15" d="M1010 230.66V148.06"/><path stroke="#EA4335" stroke-linecap="round" stroke-width="15" d="M990 407.62V227.62"/><path stroke="#EA4335" stroke-linecap="round" stroke-width="15" d="M990 205.12V160.12"/><path stroke="#0F9D58" stroke-linecap="round" stroke-width="15" d="M990 137.62V68.6001"/><path stroke="#EA4335" stroke-linecap="round" stroke-width="15" d="M970 298.79V268.79"/><path stroke="#EA4335" stroke-linecap="round" stroke-width="15" d="M970 246.29V231.29"/><path stroke="#EA4335" stroke-linecap="round" stroke-width="15" d="M970 208.79V177.43"/><path stroke="#0F9D58" stroke-linecap="round" stroke-width="15" d="M950 436.13V106.13"/><path stroke="#0F9D58" stroke-linecap="round" stroke-width="15" d="M950 83.6299V40.0898"/><path stroke="#FBBC04" stroke-linecap="round" stroke-width="15" d="M8 177.47V222.47"/><path stroke="#1A73E8" stroke-linecap="round" stroke-width="15" d="M8 244.97V259.97"/><path stroke="#FBBC04" stroke-linecap="round" stroke-width="15" d="M8 282.47V298.31"/><path stroke="#1A73E8" stroke-linecap="round" stroke-width="15" d="M28 179.25V239.25"/><path stroke="#FBBC04" stroke-linecap="round" stroke-width="15" d="M28 261.75V296.53"/><path stroke="#EA4335" stroke-linecap="round" stroke-width="15" d="M48 184.23V291.55"/><path stroke="#EA4335" stroke-linecap="round" stroke-width="15" d="M68 219.9V255.88"/><path stroke="#0F9D58" stroke-linecap="round" stroke-width="15" d="M88 117.07V192.07"/><path stroke="#FBBC04" stroke-linecap="round" stroke-width="15" d="M88 214.57V358.71"/><path stroke="#FBBC04" stroke-linecap="round" stroke-width="15" d="M108 219.8V255.98"/><path stroke="#EA4335" stroke-linecap="round" stroke-width="15" d="M128 8V323"/><path stroke="#EA4335" stroke-linecap="round" stroke-width="15" d="M128 345.5V390.5"/><path stroke="#EA4335" stroke-linecap="round" stroke-width="15" d="M128 413V467.78"/><path stroke="#FBBC04" stroke-linecap="round" stroke-width="15" d="M148 116.92V251.92"/><path stroke="#EA4335" stroke-linecap="round" stroke-width="15" d="M148 274.42V289.42"/><path stroke="#FBBC04" stroke-linecap="round" stroke-width="15" d="M148 311.92V358.86"/><path stroke="#FBBC04" stroke-linecap="round" stroke-width="15" d="M168 138.58V153.58"/><path stroke="#0F9D58" stroke-linecap="round" stroke-width="15" d="M168 176.08V337.2"/><path stroke="#1A73E8" stroke-linecap="round" stroke-width="15" d="M188 100.17V235.17"/><path stroke="#1A73E8" stroke-linecap="round" stroke-width="15" d="M188 257.67V302.67"/><path stroke="#EA4335" stroke-linecap="round" stroke-width="15" d="M188 325.17V375.61"/><path stroke="#0F9D58" stroke-linecap="round" stroke-width="15" d="M208 111.73V171.73"/><path stroke="#EA4335" stroke-linecap="round" stroke-width="15" d="M208 194.23V239.23"/><path stroke="#0F9D58" stroke-linecap="round" stroke-width="15" d="M208 261.73V364.05"/><path stroke="#1A73E8" stroke-linecap="round" stroke-width="15" d="M228 59.9404V284.94"/><path stroke="#0F9D58" stroke-linecap="round" stroke-width="15" d="M228 307.44V415.84"/><path stroke="#0F9D58" stroke-linecap="round" stroke-width="15" d="M248 158.02V173.02"/><path stroke="#1A73E8" stroke-linecap="round" stroke-width="15" d="M248 195.52V317.76"/><path stroke="#FBBC04" stroke-linecap="round" stroke-width="15" d="M268 113.08V158.08"/><path stroke="#FBBC04" stroke-linecap="round" stroke-width="15" d="M268 180.58V285.58"/><path stroke="#FBBC04" stroke-linecap="round" stroke-width="15" d="M268 308.08V362.7"/><path stroke="#EA4335" stroke-linecap="round" stroke-width="15" d="M288 136.11V339.67"/><path stroke="#FBBC04" stroke-linecap="round" stroke-width="15" d="M308 93.2695V153.27"/><path stroke="#FBBC04" stroke-linecap="round" stroke-width="15" d="M308 175.77V295.77"/><path stroke="#FBBC04" stroke-linecap="round" stroke-width="15" d="M308 318.27V382.52"/><path stroke="#0F9D58" stroke-linecap="round" stroke-width="15" d="M328 158.6V233.6"/><path stroke="#EA4335" stroke-linecap="round" stroke-width="15" d="M328 256.1V271.1"/><path stroke="#0F9D58" stroke-linecap="round" stroke-width="15" d="M328 293.6V317.18"/><path stroke="#EA4335" stroke-linecap="round" stroke-width="15" d="M348 158V173"/><path stroke="#1A73E8" stroke-linecap="round" stroke-width="15" d="M348 195.5V240.5"/><path stroke="#0F9D58" stroke-linecap="round" stroke-width="15" d="M348 263V317.78"/><path stroke="#1A73E8" stroke-linecap="round" stroke-width="15" d="M368 144.66V234.66"/><path stroke="#EA4335" stroke-linecap="round" stroke-width="15" d="M368 257.16V287.16"/><path stroke="#0F9D58" stroke-linecap="round" stroke-width="15" d="M368 309.66V331.12"/><path stroke="#0F9D58" stroke-linecap="round" stroke-width="15" d="M388 162.42V237.42"/><path stroke="#0F9D58" stroke-linecap="round" stroke-width="15" d="M388 259.92V274.92"/><path stroke="#0F9D58" stroke-linecap="round" stroke-width="15" d="M388 297.42V313.36"/><path stroke="#1A73E8" stroke-linecap="round" stroke-width="15" d="M408 47.6504V197.65"/><path stroke="#FBBC04" stroke-linecap="round" stroke-width="15" d="M408 220.15V355.15"/><path stroke="#EA4335" stroke-linecap="round" stroke-width="15" d="M408 377.65V428.13"/><path stroke="#1A73E8" stroke-linecap="round" stroke-width="15" d="M428 109.42V366.36"/><path stroke="#EA4335" stroke-linecap="round" stroke-width="15" d="M448 220.65V255.13"/><path stroke="#0F9D58" stroke-linecap="round" stroke-width="15" d="M468 159.41V189.41"/><path stroke="#1A73E8" stroke-linecap="round" stroke-width="15" d="M468 211.91V271.91"/><path stroke="#EA4335" stroke-linecap="round" stroke-width="15" d="M468 294.41V316.37"/><path stroke="#0F9D58" stroke-linecap="round" stroke-width="15" d="M488 160.08V175.08"/><path stroke="#FBBC04" stroke-linecap="round" stroke-width="15" d="M488 197.58V315.7"/><path stroke="#EA4335" stroke-linecap="round" stroke-width="15" d="M508 187.15V202.15"/><path stroke="#EA4335" stroke-linecap="round" stroke-width="15" d="M508 224.65V239.65"/><path stroke="#0F9D58" stroke-linecap="round" stroke-width="15" d="M508 262.15V288.63"/><path stroke="#0F9D58" stroke-linecap="round" stroke-width="15" d="M528 73.1104V283.11"/><path stroke="#1A73E8" stroke-linecap="round" stroke-width="15" d="M528 305.61V350.61"/><path stroke="#FBBC04" stroke-linecap="round" stroke-width="15" d="M528 373.11V402.66"/><path stroke="#FBBC04" stroke-linecap="round" stroke-width="15" d="M548 111.36V216.36"/><path stroke="#1A73E8" stroke-linecap="round" stroke-width="15" d="M548 238.86V298.86"/><path stroke="#EA4335" stroke-linecap="round" stroke-width="15" d="M548 321.36V364.42"/><path stroke="#FBBC04" stroke-linecap="round" stroke-width="15" d="M568 81.71V126.71"/><path stroke="#FBBC04" stroke-linecap="round" stroke-width="15" d="M568 149.21V209.21"/><path stroke="#1A73E8" stroke-linecap="round" stroke-width="15" d="M568 231.71V394.07"/><path stroke="#FBBC04" stroke-linecap="round" stroke-width="15" d="M588 66.2695V156.27"/><path stroke="#EA4335" stroke-linecap="round" stroke-width="15" d="M588 178.77V223.77"/><path stroke="#1A73E8" stroke-linecap="round" stroke-width="15" d="M588 246.27V409.51"/><path stroke="#1A73E8" stroke-linecap="round" stroke-width="15" d="M608 124.31V154.31"/><path stroke="#1A73E8" stroke-linecap="round" stroke-width="15" d="M608 176.81V251.81"/><path stroke="#1A73E8" stroke-linecap="round" stroke-width="15" d="M608 274.31V351.47"/><path stroke="#0F9D58" stroke-linecap="round" stroke-width="15" d="M628 74.4199V119.42"/><path stroke="#EA4335" stroke-linecap="round" stroke-width="15" d="M628 141.92V306.92"/><path stroke="#0F9D58" stroke-linecap="round" stroke-width="15" d="M628 329.42V401.37"/><path stroke="#FBBC04" stroke-linecap="round" stroke-width="15" d="M648 159.07V204.07"/><path stroke="#1A73E8" stroke-linecap="round" stroke-width="15" d="M648 226.57V256.57"/><path stroke="#FBBC04" stroke-linecap="round" stroke-width="15" d="M648 279.07V316.71"/><path stroke="#FBBC04" stroke-linecap="round" stroke-width="15" d="M668 199.15V229.15"/><path stroke="#EA4335" stroke-linecap="round" stroke-width="15" d="M668 251.65V276.63"/><path stroke="#1A73E8" stroke-linecap="round" stroke-width="15" d="M688 102.63V237.63"/><path stroke="#0F9D58" stroke-linecap="round" stroke-width="15" d="M688 260.13V335.13"/><path stroke="#1A73E8" stroke-linecap="round" stroke-width="15" d="M688 357.63V373.15"/><path stroke="#EA4335" stroke-linecap="round" stroke-width="15" d="M708 173.35V203.35"/><path stroke="#FBBC04" stroke-linecap="round" stroke-width="15" d="M708 225.85V255.85"/><path stroke="#FBBC04" stroke-linecap="round" stroke-width="15" d="M708 278.35V302.43"/><path stroke="#1A73E8" stroke-linecap="round" stroke-width="15" d="M728 71.4805V326.48"/><path stroke="#FBBC04" stroke-linecap="round" stroke-width="15" d="M728 348.98V404.3"/><path stroke="#EA4335" stroke-linecap="round" stroke-width="15" d="M748 151.27V241.27"/><path stroke="#1A73E8" stroke-linecap="round" stroke-width="15" d="M748 263.77V278.77"/><path stroke="#EA4335" stroke-linecap="round" stroke-width="15" d="M748 301.27V324.52"/><path stroke="#EA4335" stroke-linecap="round" stroke-width="15" d="M768 89.3604V284.36"/><path stroke="#EA4335" stroke-linecap="round" stroke-width="15" d="M768 306.86V336.86"/><path stroke="#0F9D58" stroke-linecap="round" stroke-width="15" d="M768 359.36V386.42"/><path stroke="#FBBC04" stroke-linecap="round" stroke-width="15" d="M788 28.0195V178.02"/><path stroke="#1A73E8" stroke-linecap="round" stroke-width="15" d="M788 200.52V365.52"/><path stroke="#0F9D58" stroke-linecap="round" stroke-width="15" d="M788 388.02V447.77"/><path stroke="#0F9D58" stroke-linecap="round" stroke-width="15" d="M808 179.75V296.03"/><path stroke="#0F9D58" stroke-linecap="round" stroke-width="15" d="M828 217.26V258.52"/><path stroke="#EA4335" stroke-linecap="round" stroke-width="15" d="M848 132.11V252.11"/><path stroke="#FBBC04" stroke-linecap="round" stroke-width="15" d="M848 274.61V289.61"/><path stroke="#0F9D58" stroke-linecap="round" stroke-width="15" d="M848 312.11V343.66"/><path stroke="#EA4335" stroke-linecap="round" stroke-width="15" d="M868 147.84V222.84"/><path stroke="#1A73E8" stroke-linecap="round" stroke-width="15" d="M868 245.34V327.94"/><path stroke="#EA4335" stroke-linecap="round" stroke-width="15" d="M888 68.3799V248.38"/><path stroke="#EA4335" stroke-linecap="round" stroke-width="15" d="M888 270.88V315.88"/><path stroke="#0F9D58" stroke-linecap="round" stroke-width="15" d="M888 338.38V407.4"/><path stroke="#EA4335" stroke-linecap="round" stroke-width="15" d="M908 177.21V207.21"/><path stroke="#EA4335" stroke-linecap="round" stroke-width="15" d="M908 229.71V244.71"/><path stroke="#EA4335" stroke-linecap="round" stroke-width="15" d="M908 267.21V298.57"/><path stroke="#0F9D58" stroke-linecap="round" stroke-width="15" d="M928 39.8701V369.87"/><path stroke="#0F9D58" stroke-linecap="round" stroke-width="15" d="M928 392.37V435.91"/></svg>